<svg width="186" height="136" viewBox="0 0 186 136" fill="none" xmlns="http://www.w3.org/2000/svg">
<path d="M151.648 58.7265C151.648 71.9542 147.219 84.3837 139.837 94.1904C135.748 99.5499 130.865 104.225 125.187 107.874C116.101 113.918 105.086 117.339 93.3883 117.339C61.2491 117.453 35.1289 91.2256 35.1289 58.7265C35.1289 26.3414 61.1355 0 93.3883 0C105.086 0 115.988 3.42096 125.187 9.46466C130.865 13.1137 135.748 17.789 139.837 23.1485C147.219 33.0693 151.648 45.3847 151.648 58.7265Z" fill="#EAEEF9"/>
<path d="M49.02 50.8743H48.3167C47.7892 50.8743 47.4375 50.7102 47.4375 50.464C47.4375 50.2178 47.7892 50.0537 48.3167 50.0537H49.02C49.5475 50.0537 49.8992 50.2178 49.8992 50.464C49.8992 50.7102 49.5475 50.8743 49.02 50.8743Z" fill="#2D5887"/>
<path d="M49.02 54.1565H48.3167C47.7892 54.1565 47.4375 53.9924 47.4375 53.7462C47.4375 53.5 47.7892 53.3359 48.3167 53.3359H49.02C49.5475 53.3359 49.8992 53.5 49.8992 53.7462C49.8992 53.9924 49.5475 54.1565 49.02 54.1565Z" fill="#2D5887"/>
<path d="M49.02 57.4387H48.3167C47.7892 57.4387 47.4375 57.2746 47.4375 57.0284C47.4375 56.7823 47.7892 56.6182 48.3167 56.6182H49.02C49.5475 56.6182 49.8992 56.7823 49.8992 57.0284C49.8992 57.2746 49.5475 57.4387 49.02 57.4387Z" fill="#2D5887"/>
<path d="M49.02 60.7209H48.3167C47.7892 60.7209 47.4375 60.5568 47.4375 60.3107C47.4375 60.0645 47.7892 59.9004 48.3167 59.9004H49.02C49.5475 59.9004 49.8992 60.0645 49.8992 60.3107C49.8992 60.5568 49.5475 60.7209 49.02 60.7209Z" fill="#2D5887"/>
<path d="M81.1189 50.8743H69.553C69.0841 50.8743 68.7715 50.7102 68.7715 50.464C68.7715 50.2178 69.0841 50.0537 69.553 50.0537H81.1189C81.5878 50.0537 81.9004 50.2178 81.9004 50.464C81.9004 50.7102 81.5878 50.8743 81.1189 50.8743Z" fill="white"/>
<path d="M105.762 60.7209H69.5264C69.0734 60.7209 68.7715 60.5568 68.7715 60.3107C68.7715 60.0645 69.0734 59.9004 69.5264 59.9004H105.762C106.215 59.9004 106.517 60.0645 106.517 60.3107C106.517 60.5568 106.215 60.7209 105.762 60.7209Z" fill="url(#paint0_linear_461_13581)"/>
<path d="M81.1642 54.1565H65.4053C64.9635 54.1565 64.6689 53.9924 64.6689 53.7462C64.6689 53.5 64.9635 53.3359 65.4053 53.3359H81.1642C81.606 53.3359 81.9006 53.5 81.9006 53.7462C81.9006 53.9924 81.606 54.1565 81.1642 54.1565Z" fill="#2D5887"/>
<path d="M93.4741 57.4387H65.4038C64.9629 57.4387 64.6689 57.2746 64.6689 57.0284C64.6689 56.7823 64.9629 56.6182 65.4038 56.6182H93.4741C93.915 56.6182 94.2089 56.7823 94.2089 57.0284C94.0619 57.2746 93.768 57.4387 93.4741 57.4387Z" fill="#2D5887"/>
<path d="M105.718 57.4387H95.0082C94.5287 57.4387 94.209 57.2746 94.209 57.0284C94.209 56.7823 94.5287 56.6182 95.0082 56.6182H105.718C106.198 56.6182 106.517 56.7823 106.517 57.0284C106.517 57.2746 106.198 57.4387 105.718 57.4387Z" fill="white"/>
<path d="M112.306 57.4387H108.114C107.648 57.4387 107.338 57.2746 107.338 57.0284C107.338 56.7823 107.648 56.6182 108.114 56.6182H112.306C112.771 56.6182 113.082 56.7823 113.082 57.0284C113.082 57.2746 112.771 57.4387 112.306 57.4387Z" fill="url(#paint1_linear_461_13581)"/>
<path d="M22 102.569H159.853" stroke="#D6DEE8" stroke-width="2" stroke-miterlimit="10" stroke-linecap="round" stroke-linejoin="round"/>
<g filter="url(#filter0_d_461_13581)">
<path d="M118.825 50.0537V102.569H44.3713C41.4342 102.569 39.2314 100.209 39.2314 97.4062V50.0537H118.825Z" fill="white"/>
</g>
<path d="M148.365 50.0537V97.4062C148.365 100.356 145.916 102.569 143.008 102.569H118.825V50.0537H148.365Z" fill="#DAE1ED"/>
<g filter="url(#filter1_d_461_13581)">
<path d="M148.365 50.0537V97.4062C148.365 100.356 145.916 102.569 143.008 102.569H118.825V50.0537H148.365Z" fill="#E7EAF4"/>
</g>
<path d="M67.9512 50.0539L83.6074 25.4373H163.956L147.857 50.0539H67.9512Z" fill="#C5CDDB"/>
<g filter="url(#filter2_d_461_13581)">
<path d="M67.9512 50.0539L83.6074 25.4373H163.956L147.857 50.0539H67.9512Z" fill="url(#paint2_linear_461_13581)"/>
</g>
<path opacity="0.3" d="M148.365 50.1975V77.9526H126.826C124.825 77.9526 123.441 76.6583 123.133 74.7888L118.825 50.0537L148.365 50.1975Z" fill="url(#paint3_linear_461_13581)"/>
<g filter="url(#filter3_d_461_13581)">
<path d="M147.746 50.0537H118.825L133.51 72.3119C134.559 73.7859 136.208 74.6704 137.856 74.6704H160.334C161.832 74.6704 162.881 72.9015 161.982 71.7223L147.746 50.0537Z" fill="url(#paint4_linear_461_13581)"/>
</g>
<g filter="url(#filter4_d_461_13581)">
<path d="M118.825 50.0539L103.06 25.4373H22L38.3607 50.0539H118.825Z" fill="#E7EAF4"/>
</g>
<path d="M78.9538 80.4143H47.9213C47.1963 80.4143 46.6162 79.8673 46.6162 79.1835C46.6162 78.4997 47.1963 77.9526 47.9213 77.9526H78.9538C79.6789 77.9526 80.259 78.4997 80.259 79.1835C80.1139 79.8673 79.6789 80.4143 78.9538 80.4143Z" fill="#DAE1ED"/>
<path d="M78.9538 86.1582H47.9213C47.1963 86.1582 46.6162 85.7935 46.6162 85.3376C46.6162 84.8818 47.1963 84.5171 47.9213 84.5171H78.9538C79.6789 84.5171 80.259 84.8818 80.259 85.3376C80.1139 85.7935 79.6789 86.1582 78.9538 86.1582Z" fill="#DAE1ED"/>
<path d="M62.5223 92.7227H47.9417C47.2053 92.7227 46.6162 92.358 46.6162 91.9021C46.6162 91.4462 47.2053 91.0815 47.9417 91.0815H62.5223C63.2587 91.0815 63.8479 91.4462 63.8479 91.9021C63.7006 92.358 63.1115 92.7227 62.5223 92.7227Z" fill="#DAE1ED"/>
<defs>
<filter id="filter0_d_461_13581" x="17.2314" y="39.0537" width="123.594" height="96.5154" filterUnits="userSpaceOnUse" color-interpolation-filters="sRGB">
<feFlood flood-opacity="0" result="BackgroundImageFix"/>
<feColorMatrix in="SourceAlpha" type="matrix" values="0 0 0 0 0 0 0 0 0 0 0 0 0 0 0 0 0 0 127 0" result="hardAlpha"/>
<feOffset dy="11"/>
<feGaussianBlur stdDeviation="11"/>
<feColorMatrix type="matrix" values="0 0 0 0 0.397708 0 0 0 0 0.47749 0 0 0 0 0.575 0 0 0 0.27 0"/>
<feBlend mode="normal" in2="BackgroundImageFix" result="effect1_dropShadow_461_13581"/>
<feBlend mode="normal" in="SourceGraphic" in2="effect1_dropShadow_461_13581" result="shape"/>
</filter>
<filter id="filter1_d_461_13581" x="96.8252" y="39.0537" width="73.54" height="96.5154" filterUnits="userSpaceOnUse" color-interpolation-filters="sRGB">
<feFlood flood-opacity="0" result="BackgroundImageFix"/>
<feColorMatrix in="SourceAlpha" type="matrix" values="0 0 0 0 0 0 0 0 0 0 0 0 0 0 0 0 0 0 127 0" result="hardAlpha"/>
<feOffset dy="11"/>
<feGaussianBlur stdDeviation="11"/>
<feColorMatrix type="matrix" values="0 0 0 0 0.397708 0 0 0 0 0.47749 0 0 0 0 0.575 0 0 0 0.27 0"/>
<feBlend mode="normal" in2="BackgroundImageFix" result="effect1_dropShadow_461_13581"/>
<feBlend mode="normal" in="SourceGraphic" in2="effect1_dropShadow_461_13581" result="shape"/>
</filter>
<filter id="filter2_d_461_13581" x="45.9512" y="14.4373" width="140.005" height="68.6167" filterUnits="userSpaceOnUse" color-interpolation-filters="sRGB">
<feFlood flood-opacity="0" result="BackgroundImageFix"/>
<feColorMatrix in="SourceAlpha" type="matrix" values="0 0 0 0 0 0 0 0 0 0 0 0 0 0 0 0 0 0 127 0" result="hardAlpha"/>
<feOffset dy="11"/>
<feGaussianBlur stdDeviation="11"/>
<feColorMatrix type="matrix" values="0 0 0 0 0.397708 0 0 0 0 0.47749 0 0 0 0 0.575 0 0 0 0.27 0"/>
<feBlend mode="normal" in2="BackgroundImageFix" result="effect1_dropShadow_461_13581"/>
<feBlend mode="normal" in="SourceGraphic" in2="effect1_dropShadow_461_13581" result="shape"/>
</filter>
<filter id="filter3_d_461_13581" x="96.8252" y="39.0537" width="87.4893" height="68.6167" filterUnits="userSpaceOnUse" color-interpolation-filters="sRGB">
<feFlood flood-opacity="0" result="BackgroundImageFix"/>
<feColorMatrix in="SourceAlpha" type="matrix" values="0 0 0 0 0 0 0 0 0 0 0 0 0 0 0 0 0 0 127 0" result="hardAlpha"/>
<feOffset dy="11"/>
<feGaussianBlur stdDeviation="11"/>
<feColorMatrix type="matrix" values="0 0 0 0 0.397708 0 0 0 0 0.47749 0 0 0 0 0.575 0 0 0 0.27 0"/>
<feBlend mode="normal" in2="BackgroundImageFix" result="effect1_dropShadow_461_13581"/>
<feBlend mode="normal" in="SourceGraphic" in2="effect1_dropShadow_461_13581" result="shape"/>
</filter>
<filter id="filter4_d_461_13581" x="0" y="14.4373" width="140.825" height="68.6167" filterUnits="userSpaceOnUse" color-interpolation-filters="sRGB">
<feFlood flood-opacity="0" result="BackgroundImageFix"/>
<feColorMatrix in="SourceAlpha" type="matrix" values="0 0 0 0 0 0 0 0 0 0 0 0 0 0 0 0 0 0 127 0" result="hardAlpha"/>
<feOffset dy="11"/>
<feGaussianBlur stdDeviation="11"/>
<feColorMatrix type="matrix" values="0 0 0 0 0.397708 0 0 0 0 0.47749 0 0 0 0 0.575 0 0 0 0.27 0"/>
<feBlend mode="normal" in2="BackgroundImageFix" result="effect1_dropShadow_461_13581"/>
<feBlend mode="normal" in="SourceGraphic" in2="effect1_dropShadow_461_13581" result="shape"/>
</filter>
<linearGradient id="paint0_linear_461_13581" x1="68.941" y1="60.3273" x2="106.561" y2="60.3273" gradientUnits="userSpaceOnUse">
<stop stop-color="#FF66A9"/>
<stop offset="1" stop-color="#F53689"/>
</linearGradient>
<linearGradient id="paint1_linear_461_13581" x1="107.376" y1="57.0033" x2="113.081" y2="57.0033" gradientUnits="userSpaceOnUse">
<stop stop-color="#83A6FF"/>
<stop offset="1" stop-color="#5A78FF"/>
</linearGradient>
<linearGradient id="paint2_linear_461_13581" x1="115.922" y1="24.8678" x2="115.922" y2="50.3193" gradientUnits="userSpaceOnUse">
<stop stop-color="#FDFEFF"/>
<stop offset="0.9964" stop-color="#ECF0F5"/>
</linearGradient>
<linearGradient id="paint3_linear_461_13581" x1="133.602" y1="78.5252" x2="133.602" y2="53.1127" gradientUnits="userSpaceOnUse">
<stop offset="0.00289017" stop-color="#606673" stop-opacity="0"/>
<stop offset="1" stop-color="#AAB2C5"/>
</linearGradient>
<linearGradient id="paint4_linear_461_13581" x1="140.556" y1="49.4843" x2="140.556" y2="74.9357" gradientUnits="userSpaceOnUse">
<stop stop-color="#FDFEFF"/>
<stop offset="0.9964" stop-color="#ECF0F5"/>
</linearGradient>
</defs>
</svg>
